<?xml version="1.0" encoding="UTF-8"?>
<svg viewBox="0 0 40 40" xmlns="http://www.w3.org/2000/svg">
    <!-- 纸影圆底 -->
    <circle cx="20.5" cy="20.6" r="17" fill="#B5A68A"/>
    <!-- 脸圆底 -->
    <circle cx="20" cy="20" r="17" fill="#6E8A5E"/>
    <!-- 脸亮面 -->
    <circle cx="20" cy="20" r="15.5" fill="#8AAE7A"/>
    <!-- 纸艺芽芽（头顶小苗） -->
    <!-- 芽影 -->
    <ellipse cx="20.4" cy="6.6" rx="2.2" ry="3" fill="#B5A68A"/>
    <path d="M20.4 7.2Q21.5 4 23.5 3.5" stroke="#B5A68A" stroke-width="1.8" fill="none" stroke-linecap="round"/>
    <!-- 芽主体 -->
    <ellipse cx="20" cy="6" rx="2.2" ry="3" fill="#6E8A5E"/>
    <path d="M20 6.8Q21.2 3.5 23 3" stroke="#6E8A5E" stroke-width="1.8" fill="none" stroke-linecap="round"/>
    <!-- 小叶片 -->
    <ellipse cx="23.5" cy="3" rx="2" ry="1.2" fill="#6E8A5E" transform="rotate(-20,23.5,3)"/>
    <!-- 纸艺裁切圆豆眼 -->
    <circle cx="14.5" cy="18" r="2.6" fill="#F4EBDA"/>
    <circle cx="25.5" cy="18" r="2.6" fill="#F4EBDA"/>
    <circle cx="15" cy="17.6" r="1.3" fill="#2C2A26"/>
    <circle cx="26" cy="17.6" r="1.3" fill="#2C2A26"/>
    <!-- 纸艺嘴巴 -->
    <path d="M16 24Q20 27.5 24 24" stroke="#2C2A26" stroke-width="1.2" fill="none" stroke-linecap="round"/>
    <!-- 脸颊纸艺腮红 -->
    <circle cx="12" cy="22" r="3" fill="#C0553F" opacity=".18"/>
    <circle cx="28" cy="22" r="3" fill="#C0553F" opacity=".18"/>
  </svg>